<?xml version="1.0" encoding="utf-8"?>
<svg viewBox="362.5059 659.3528 1674.9882 481.2943" xmlns="http://www.w3.org/2000/svg">
  <svg version="1.0" xmlns="http://www.w3.org/2000/svg" x="0" y="0" width="2400" height="1800" viewBox="0 0 340.000000 250.000000" preserveAspectRatio="xMidYMid meet" color-interpolation-filters="sRGB" style="" transform="matrix(7.0588235294117645, 0, 0, 7.0588235294117645, 0, 17.647058823529505)">
    <g fill="#333333" class="icon-text-wrapper icon-svg-group iconsvg" transform="translate(51.355003356933594,90.90831756591797)">
      <g class="iconsvg-imagesvg" transform="translate(0,0)">
        <g>
          <rect fill="#333333" fill-opacity="0" stroke-width="2" x="0" y="0" width="60" height="68.18336780381372" class="image-rect"/>
          <svg x="0" y="0" width="60" height="68.18336780381372" filtersec="colorsb5283161461" class="image-svg-svg primary" style="overflow: visible;">
            <svg xmlns="http://www.w3.org/2000/svg" viewBox="0 0 137.02999877929688 155.72000122070312">
              <g style="isolation:isolate">
                <g>
                  <path d="M77.62 0v10.82L59.42.44 0 34.12l7.77 4.61L0 43.15V113l8.12-4.82V122l59.42 33.68V150l10.07 5.72L137 121.41l-8-4.62 8-4.75V34.12zm20.16 65.46v33.29l-30.24 17.33v-5.69L35.46 92l3.79-2.25V57.41l38.37-21.93v10.29l27.45 15.56z" fill="#fff"/>
                  <path fill="#f12b93" style="mix-blend-mode:multiply" d="M59.42.44L0 34.12l39.25 23.29 59.96-34.27L59.42.44z"/>
                  <path fill="#f0429e" style="mix-blend-mode:multiply" d="M0 43.15v69.86l39.25-23.29V20.83L0 43.15z"/>
                  <path fill="#2a429b" style="mix-blend-mode:multiply" d="M97.78 65.46v69.87l39.25-23.29V43.15L97.78 65.46z"/>
                  <path fill="#6c1586" style="mix-blend-mode:multiply" d="M8.12 76.27v45.76l59.42 33.68v-45.32L8.12 76.27z"/>
                  <path fill="#58bfd9" style="mix-blend-mode:multiply" d="M77.62 0v45.77l59.41 33.67V34.12L77.62 0z"/>
                  <path fill="#8d59a8" style="mix-blend-mode:multiply" d="M97.78 98.75l-59.96 34.37 39.8 22.59 59.41-34.3-39.25-22.66z"/>
                </g>
              </g>
            </svg>
          </svg>
        </g>
      </g>
      <g transform="translate(73,18.71668243408203)">
        <g fill-rule="" stroke="#333333" class="tp-name iconsvg-namesvg">
          <g transform="scale(1)">
            <g>
              <path d="M21.64-3.1L7.57-3.1 7.57-28.77 3.91-28.77 3.91 0 21.64 0 21.64-3.1ZM39.22-21.38L28.3-21.38 28.3-18.2 35.57-18.2 35.57-3.16 28.3-3.16 28.3 0 46.2 0 46.2-3.16 39.22-3.16 39.22-21.38ZM35.09-26.99L35.09-26.99Q35.09-26.1 35.64-25.51 36.18-24.92 37.29-24.92L37.29-24.92Q38.37-24.92 38.93-25.51 39.48-26.1 39.48-26.99L39.48-26.99Q39.48-27.49 39.32-27.9 39.17-28.32 38.85-28.59L38.85-28.59Q38.59-28.85 38.2-29 37.8-29.15 37.29-29.15L37.29-29.15Q36.77-29.15 36.37-29 35.96-28.85 35.71-28.59L35.71-28.59Q35.39-28.3 35.24-27.88 35.09-27.47 35.09-26.99ZM52.01-21.38L52.01 0 55.67 0 55.67-15.33Q56.04-16.03 56.54-16.6 57.05-17.17 57.64-17.61L57.64-17.61Q58.37-18.1 59.24-18.39 60.11-18.67 61.12-18.67L61.12-18.67Q62.29-18.67 63.18-18.4 64.08-18.12 64.72-17.51L64.72-17.51Q65.33-16.9 65.64-15.91 65.96-14.92 65.96-13.5L65.96-13.5 65.96 0 69.62 0 69.62-13.58Q69.62-15.71 69.09-17.26 68.57-18.81 67.6-19.82L67.6-19.82Q66.63-20.83 65.26-21.3 63.89-21.78 62.21-21.78L62.21-21.78Q60.96-21.76 59.84-21.41 58.73-21.06 57.78-20.43L57.78-20.43Q57.15-20.02 56.58-19.45 56.02-18.89 55.55-18.22L55.55-18.22 55.29-21.38 52.01-21.38ZM80.01-7.39L82.7-9.98 90.54 0 95.19 0 85.21-12.47 93.86-21.38 89.42-21.38 82.4-14.35 80.01-11.78 80.01-30.35 76.33-30.35 76.33 0 80.01 0 80.01-7.39ZM100.54-28.77L100.54 0 109.75 0Q111.59-0.02 113.32-0.57 115.05-1.13 116.37-2.17L116.37-2.17Q117.69-3.2 118.48-4.74 119.27-6.28 119.25-8.3L119.25-8.3Q119.25-9.58 118.87-10.69 118.48-11.8 117.79-12.69L117.79-12.69Q117.14-13.5 116.13-14.17 115.12-14.84 114.04-15.1L114.04-15.1 114.04-15.16Q115.09-15.61 115.83-16.12 116.57-16.64 117.18-17.39L117.18-17.39Q117.77-18.12 118.12-19.05 118.46-19.98 118.48-21.1L118.48-21.1Q118.5-23.12 117.71-24.56 116.92-26 115.6-26.93L115.6-26.93Q114.28-27.86 112.58-28.31 110.88-28.75 109.1-28.77L109.1-28.77 100.54-28.77ZM104.22-3.1L104.22-13.46 110.05-13.46Q111.21-13.42 112.22-13.06 113.23-12.71 113.98-12.05L113.98-12.05Q114.73-11.38 115.15-10.43 115.58-9.49 115.56-8.26L115.56-8.26Q115.56-7.05 115.1-6.11 114.63-5.16 113.84-4.51L113.84-4.51Q113.05-3.85 112.02-3.49 111-3.12 109.85-3.1L109.85-3.1 104.22-3.1ZM109.32-16.5L104.22-16.5 104.22-25.65 109.22-25.65Q110.28-25.63 111.3-25.37 112.32-25.12 113.11-24.58L113.11-24.58Q113.88-24.03 114.34-23.18 114.81-22.33 114.81-21.12L114.81-21.12Q114.81-20 114.33-19.15 113.86-18.3 113.09-17.73L113.09-17.73Q112.32-17.13 111.33-16.83 110.34-16.52 109.32-16.5L109.32-16.5ZM123.84-10.89L123.84-10.89 123.84-10.45Q123.84-8.14 124.51-6.17 125.18-4.19 126.45-2.73L126.45-2.73Q127.69-1.26 129.5-0.43 131.31 0.4 133.58 0.4L133.58 0.4Q135.83 0.4 137.63-0.43 139.43-1.26 140.7-2.73L140.7-2.73Q141.94-4.19 142.61-6.17 143.28-8.14 143.28-10.45L143.28-10.45 143.28-10.89Q143.28-13.2 142.61-15.19 141.94-17.17 140.7-18.63L140.7-18.63Q139.43-20.1 137.62-20.94 135.81-21.78 133.54-21.78L133.54-21.78Q131.29-21.78 129.49-20.94 127.69-20.1 126.45-18.63L126.45-18.63Q125.18-17.17 124.51-15.19 123.84-13.2 123.84-10.89ZM127.5-10.45L127.5-10.45 127.5-10.89Q127.5-12.45 127.87-13.88 128.25-15.31 129.02-16.4L129.02-16.4Q129.77-17.49 130.89-18.13 132.02-18.77 133.54-18.77L133.54-18.77Q135.06-18.77 136.2-18.13 137.34-17.49 138.11-16.4L138.11-16.4Q138.86-15.31 139.24-13.88 139.63-12.45 139.63-10.89L139.63-10.89 139.63-10.45Q139.63-8.87 139.25-7.44 138.88-6.01 138.13-4.92L138.13-4.92Q137.36-3.83 136.22-3.2 135.08-2.57 133.58-2.57L133.58-2.57Q132.06-2.57 130.91-3.2 129.77-3.83 129.02-4.92L129.02-4.92Q128.25-6.01 127.87-7.44 127.5-8.87 127.5-10.45ZM163.7-21.38L157.99-13.46 152.33-21.38 148.11-21.38 156.07-10.81 147.89 0 152.16 0 158.06-8.14 163.97 0 168.2 0 160.02-10.81 167.98-21.38 163.7-21.38Z" transform="translate(-3.9100000858306885, 30.350000381469727)" stroke-width="2.5" stroke-linejoin="round"/>
            </g>
          </g>
        </g>
      </g>
    </g>
  </svg>
  <svg version="1.0" xmlns="http://www.w3.org/2000/svg" x="0" y="0" width="2400" height="1800" viewBox="0 0 340.000000 250.000000" preserveAspectRatio="xMidYMid meet" color-interpolation-filters="sRGB" style="" transform="matrix(7.0588235294117645, 0, 0, 7.0588235294117645, 0, 17.647058823529505)">
    <g fill="#333333" class="icon-text-wrapper icon-svg-group iconsvg" transform="translate(51.355003356933594,90.90831756591797)">
      <g class="iconsvg-imagesvg" transform="translate(0,0)">
        <g>
          <rect fill="#333333" fill-opacity="0" stroke-width="2" x="0" y="0" width="60" height="68.18336780381372" class="image-rect"/>
          <svg x="0" y="0" width="60" height="68.18336780381372" filtersec="colorsb5283161461" class="image-svg-svg primary" style="overflow: visible;">
            <svg xmlns="http://www.w3.org/2000/svg" viewBox="0 0 137.02999877929688 155.72000122070312">
              <g style="isolation:isolate">
                <g>
                  <path d="M77.62 0v10.82L59.42.44 0 34.12l7.77 4.61L0 43.15V113l8.12-4.82V122l59.42 33.68V150l10.07 5.72L137 121.41l-8-4.62 8-4.75V34.12zm20.16 65.46v33.29l-30.24 17.33v-5.69L35.46 92l3.79-2.25V57.41l38.37-21.93v10.29l27.45 15.56z" fill="#fff"/>
                  <path fill="#f12b93" style="mix-blend-mode:multiply" d="M59.42.44L0 34.12l39.25 23.29 59.96-34.27L59.42.44z"/>
                  <path fill="#f0429e" style="mix-blend-mode:multiply" d="M0 43.15v69.86l39.25-23.29V20.83L0 43.15z"/>
                  <path fill="#2a429b" style="mix-blend-mode:multiply" d="M97.78 65.46v69.87l39.25-23.29V43.15L97.78 65.46z"/>
                  <path fill="#6c1586" style="mix-blend-mode:multiply" d="M8.12 76.27v45.76l59.42 33.68v-45.32L8.12 76.27z"/>
                  <path fill="#58bfd9" style="mix-blend-mode:multiply" d="M77.62 0v45.77l59.41 33.67V34.12L77.62 0z"/>
                  <path fill="#8d59a8" style="mix-blend-mode:multiply" d="M97.78 98.75l-59.96 34.37 39.8 22.59 59.41-34.3-39.25-22.66z"/>
                </g>
              </g>
            </svg>
          </svg>
        </g>
      </g>
      <g transform="translate(73,18.71668243408203)">
        <g fill-rule="" stroke="#333333" class="tp-name iconsvg-namesvg">
          <g transform="scale(1)">
            <g>
              <path d="M21.64-3.1L7.57-3.1 7.57-28.77 3.91-28.77 3.91 0 21.64 0 21.64-3.1ZM39.22-21.38L28.3-21.38 28.3-18.2 35.57-18.2 35.57-3.16 28.3-3.16 28.3 0 46.2 0 46.2-3.16 39.22-3.16 39.22-21.38ZM35.09-26.99L35.09-26.99Q35.09-26.1 35.64-25.51 36.18-24.92 37.29-24.92L37.29-24.92Q38.37-24.92 38.93-25.51 39.48-26.1 39.48-26.99L39.48-26.99Q39.48-27.49 39.32-27.9 39.17-28.32 38.85-28.59L38.85-28.59Q38.59-28.85 38.2-29 37.8-29.15 37.29-29.15L37.29-29.15Q36.77-29.15 36.37-29 35.96-28.85 35.71-28.59L35.71-28.59Q35.39-28.3 35.24-27.88 35.09-27.47 35.09-26.99ZM52.01-21.38L52.01 0 55.67 0 55.67-15.33Q56.04-16.03 56.54-16.6 57.05-17.17 57.64-17.61L57.64-17.61Q58.37-18.1 59.24-18.39 60.11-18.67 61.12-18.67L61.12-18.67Q62.29-18.67 63.18-18.4 64.08-18.12 64.72-17.51L64.72-17.51Q65.33-16.9 65.64-15.91 65.96-14.92 65.96-13.5L65.96-13.5 65.96 0 69.62 0 69.62-13.58Q69.62-15.71 69.09-17.26 68.57-18.81 67.6-19.82L67.6-19.82Q66.63-20.83 65.26-21.3 63.89-21.78 62.21-21.78L62.21-21.78Q60.96-21.76 59.84-21.41 58.73-21.06 57.78-20.43L57.78-20.43Q57.15-20.02 56.58-19.45 56.02-18.89 55.55-18.22L55.55-18.22 55.29-21.38 52.01-21.38ZM80.01-7.39L82.7-9.98 90.54 0 95.19 0 85.21-12.47 93.86-21.38 89.42-21.38 82.4-14.35 80.01-11.78 80.01-30.35 76.33-30.35 76.33 0 80.01 0 80.01-7.39ZM100.54-28.77L100.54 0 109.75 0Q111.59-0.02 113.32-0.57 115.05-1.13 116.37-2.17L116.37-2.17Q117.69-3.2 118.48-4.74 119.27-6.28 119.25-8.3L119.25-8.3Q119.25-9.58 118.87-10.69 118.48-11.8 117.79-12.69L117.79-12.69Q117.14-13.5 116.13-14.17 115.12-14.84 114.04-15.1L114.04-15.1 114.04-15.16Q115.09-15.61 115.83-16.12 116.57-16.64 117.18-17.39L117.18-17.39Q117.77-18.12 118.12-19.05 118.46-19.98 118.48-21.1L118.48-21.1Q118.5-23.12 117.71-24.56 116.92-26 115.6-26.93L115.6-26.93Q114.28-27.86 112.58-28.31 110.88-28.75 109.1-28.77L109.1-28.77 100.54-28.77ZM104.22-3.1L104.22-13.46 110.05-13.46Q111.21-13.42 112.22-13.06 113.23-12.71 113.98-12.05L113.98-12.05Q114.73-11.38 115.15-10.43 115.58-9.49 115.56-8.26L115.56-8.26Q115.56-7.05 115.1-6.11 114.63-5.16 113.84-4.51L113.84-4.51Q113.05-3.85 112.02-3.49 111-3.12 109.85-3.1L109.85-3.1 104.22-3.1ZM109.32-16.5L104.22-16.5 104.22-25.65 109.22-25.65Q110.28-25.63 111.3-25.37 112.32-25.12 113.11-24.58L113.11-24.58Q113.88-24.03 114.34-23.18 114.81-22.33 114.81-21.12L114.81-21.12Q114.81-20 114.33-19.15 113.86-18.3 113.09-17.73L113.09-17.73Q112.32-17.13 111.33-16.83 110.34-16.52 109.32-16.5L109.32-16.5ZM123.84-10.89L123.84-10.89 123.84-10.45Q123.84-8.14 124.51-6.17 125.18-4.19 126.45-2.73L126.45-2.73Q127.69-1.26 129.5-0.43 131.31 0.4 133.58 0.4L133.58 0.4Q135.83 0.4 137.63-0.43 139.43-1.26 140.7-2.73L140.7-2.73Q141.94-4.19 142.61-6.17 143.28-8.14 143.28-10.45L143.28-10.45 143.28-10.89Q143.28-13.2 142.61-15.19 141.94-17.17 140.7-18.63L140.7-18.63Q139.43-20.1 137.62-20.94 135.81-21.78 133.54-21.78L133.54-21.78Q131.29-21.78 129.49-20.94 127.69-20.1 126.45-18.63L126.45-18.63Q125.18-17.17 124.51-15.19 123.84-13.2 123.84-10.89ZM127.5-10.45L127.5-10.45 127.5-10.89Q127.5-12.45 127.87-13.88 128.25-15.31 129.02-16.4L129.02-16.4Q129.77-17.49 130.89-18.13 132.02-18.77 133.54-18.77L133.54-18.77Q135.06-18.77 136.2-18.13 137.34-17.49 138.11-16.4L138.11-16.4Q138.86-15.31 139.24-13.88 139.63-12.45 139.63-10.89L139.63-10.89 139.63-10.45Q139.63-8.87 139.25-7.44 138.88-6.01 138.13-4.92L138.13-4.92Q137.36-3.83 136.22-3.2 135.08-2.57 133.58-2.57L133.58-2.57Q132.06-2.57 130.91-3.2 129.77-3.83 129.02-4.92L129.02-4.92Q128.25-6.01 127.87-7.44 127.5-8.87 127.5-10.45ZM163.7-21.38L157.99-13.46 152.33-21.38 148.11-21.38 156.07-10.81 147.89 0 152.16 0 158.06-8.14 163.97 0 168.2 0 160.02-10.81 167.98-21.38 163.7-21.38Z" transform="translate(-3.9100000858306885, 30.350000381469727)" stroke-width="2.5" stroke-linejoin="round"/>
            </g>
          </g>
        </g>
      </g>
    </g>
  </svg>
</svg>